<svg xmlns="http://www.w3.org/2000/svg" width="12" height="12" viewBox="0 0 12 12" fill="none">
  <g clip-path="url(#clip0_1790_16317)">
    <path d="M8.33984 2.45992C8.33984 2.03979 8.68042 1.69922 9.10054 1.69922C9.52066 1.69922 9.86124 2.03979 9.86124 2.45992V9.23851C9.86124 9.65863 9.52066 9.99921 9.10054 9.99921C8.68042 9.99921 8.33984 9.65863 8.33984 9.23851V2.45992Z" fill="currentColor"/>
  </g>
  <g clip-path="url(#clip1_1790_16317)">
    <path d="M9.12697 1.69531C9.53362 1.69531 9.86328 2.02497 9.86328 2.43163C9.86328 2.83828 9.53362 3.16794 9.12697 3.16794L2.29961 3.16794C1.89295 3.16794 1.56329 2.83828 1.56329 2.43163C1.56329 2.02497 1.89295 1.69531 2.29961 1.69531L9.12697 1.69531Z" fill="currentColor"/>
  </g>
  <g clip-path="url(#clip2_1790_16317)">
    <path d="M7.90465 2.53392C8.19669 2.24129 8.67074 2.24105 8.96307 2.53338C9.25499 2.8253 9.25523 3.29851 8.96361 3.59072L2.59339 9.97389C2.30135 10.2665 1.82731 10.2668 1.53498 9.97443C1.24306 9.68251 1.24282 9.2093 1.53444 8.91709L7.90465 2.53392Z" fill="currentColor"/>
  </g>
  <defs>
    <clipPath id="clip0_1790_16317">
      <rect x="8.33984" y="1.69922" width="1.52139" height="8.29999" rx="0.760697" fill="white"/>
    </clipPath>
    <clipPath id="clip1_1790_16317">
      <rect x="1.5625" y="1.69531" width="8.29999" height="1.47263" rx="0.736315" fill="white"/>
    </clipPath>
    <clipPath id="clip2_1790_16317">
      <rect x="0.984375" y="9.41406" width="10.5063" height="1.5597" rx="0.779849" transform="rotate(-45 0.984375 9.41406)" fill="white"/>
    </clipPath>
  </defs>
</svg>
